<svg id="Capa_1" data-name="Capa 1" xmlns="http://www.w3.org/2000/svg" viewBox="0 0 2160 2160"><defs><style>.cls-1{opacity:0.32;}.cls-2{fill:#010101;}.cls-3{font-size:435.43px;fill:#fff;font-family:Montserrat-Regular, Montserrat;}</style></defs><g class="cls-1"><path class="cls-2" d="M1444.07,1186.62c4.14-5.5,9.8-7.45,16.52-7.86,7.58-.47,15.11-1.75,22.68-2.52,4.48-.46,7.17-2.31,8.47-7a119.9,119.9,0,0,1,11.42-27.48c2.15-3.74,1.54-6.5-1.11-9.71-5.93-7.17-11.7-14.49-17.17-22s-5-12,1.41-18.5q16.51-16.71,33.22-33.23c6.77-6.7,11.93-7,19.57-1.2,7.24,5.5,14.45,11.06,21.49,16.82,3,2.47,5.65,3,9.17,1a136.94,136.94,0,0,1,28.67-11.9c3.75-1.09,5.43-3.14,5.82-7.15q1.38-14.21,3.62-28.3c1.33-8.44,5.05-12,13.61-12.23q23.79-.54,47.61,0c9.07.18,13.07,3.89,14.47,12.87,1.38,8.76,2.42,17.6,3.13,26.44.37,4.64,2,7.36,6.63,8.68a128.31,128.31,0,0,1,28.06,11.72c3.55,2,6,1.44,9.05-1.1,7.14-6,14.55-11.61,22-17.23,6.87-5.21,12.7-5.26,18.8.73,12.06,11.87,23.84,24,35.48,36.32,4.51,4.76,4.46,9.69.15,15.56-5.5,7.49-11.18,14.89-17.23,22-3.28,3.84-3.54,7-1.09,11.38a111.73,111.73,0,0,1,10.66,25.74c1.42,5.23,4.26,7.31,9.23,7.81,8.2.81,16.38,1.89,24.58,2.73,10.32,1.07,13.94,4.78,14,15q.1,23.16,0,46.34c0,10.32-3.38,13.8-13.86,15.09-9,1.1-18,2.44-27,3.48-3.37.39-5.33,1.81-6.23,5.19a126.07,126.07,0,0,1-11.82,28.69c-2.1,3.78-1.44,6.58,1.14,9.75,5.88,7.21,11.59,14.57,17.2,22,5,6.62,5,12.14-.87,18.18q-16.74,17.35-34.11,34.12c-6.31,6.09-12.12,6-19.33.55q-11.12-8.44-22-17.18c-2.58-2.06-4.84-2.8-8-1a136.29,136.29,0,0,1-29.2,12.25c-4.1,1.23-5.67,3.53-6.06,7.68-.85,9.26-1.87,18.52-3.36,27.69-1.41,8.72-5.5,12.18-14.2,12.28q-23.81.27-47.62,0c-8.55-.12-12.6-4-13.82-12.61-1.34-9.41-2.63-18.85-3.57-28.31-.38-3.76-1.93-5.77-5.49-6.67-9.92-2.49-19.17-6.73-28.06-11.65-3.94-2.19-6.89-1.91-10.28,1-6.64,5.58-13.53,10.86-20.33,16.24-8.11,6.41-13.82,6.37-21.26-1-11.42-11.31-22.59-22.88-33.69-34.51-5.13-5.38-5.25-10.24-.55-16.57,5.8-7.81,11.84-15.45,17.93-23,2.27-2.82,2.78-5.32.91-8.63a132.33,132.33,0,0,1-11.68-28.07c-1.16-3.92-3.12-6-7.41-6.45-8.62-.85-17.17-2.49-25.8-3.22-6.17-.52-11-2.78-14.39-7.9Zm101.55,30.61c0,55.94,44,99.92,99.73,100.29,53.47.36,100.8-41.88,100.59-100.33-.21-61.07-48.91-100.42-100.65-100.39C1588.92,1116.84,1544.31,1164,1545.62,1217.23Z"/><path class="cls-2" d="M1855.4,918.88c2.7,0,4.89,1.29,6.93,2.83,4.89,3.71,9.93,7.25,14.5,11.32,3.51,3.12,6.82,3.73,10.94,1.65a111.31,111.31,0,0,1,19.31-8,5.72,5.72,0,0,0,4.47-5.44c.73-6.73,1.64-13.43,2.51-20.14,1-7.18,4-10.26,11.18-10.37q17.44-.29,34.92,0c6.95.11,10,2.82,11.17,9.67,1.06,6.47,2,13,2.43,19.5.29,4,2,6.16,5.74,7.22a85.61,85.61,0,0,1,19.35,7.92c3.17,1.82,5.63,1.68,8.53-.83,4.95-4.3,10.43-8,15.45-12.18s9.85-4.13,14.25.06c9,8.62,17.8,17.5,26.45,26.5,4.13,4.31,3.81,9.14.13,13.78s-7,9.57-11,13.91c-3.8,4.11-3.94,7.88-1.23,12.56,2,3.45,4,7.19,4.71,11,1.65,9.15,7.16,12.48,15.84,12.63a101.88,101.88,0,0,1,13.22,1.49c6.38,1,9.3,4.17,9.37,10.68.13,12.06.08,24.12,0,36.19,0,6-3.15,9.47-9.08,10.3-6.49.9-13,1.89-19.5,2.45-3.87.34-6.24,1.86-7.51,5.58a123.6,123.6,0,0,1-8.33,19.88c-1.66,3-1,5.51,1.1,8.12,4.29,5.23,8.5,10.54,12.44,16,4.15,5.79,3.84,9.5-1.17,14.65q-12,12.3-24.24,24.26c-5.4,5.27-9.59,5.51-15.77.94-5.09-3.77-10-7.76-14.93-11.8-3-2.47-5.9-2.8-9.32-.91a86.47,86.47,0,0,1-18.68,7.88c-3.74,1-5.49,3.13-5.8,7.17-.49,6.53-1.54,13-2.48,19.5-.87,6.08-4.2,9.49-10.63,9.47-11.85,0-23.7.08-35.55,0-6.86-.07-10-3-11-9.78-.91-6.49-1.85-13-2.48-19.51-.32-3.36-1.6-5.4-4.88-6.54-7-2.42-14-4.92-20.47-8.56-3.37-1.88-6-.57-8.67,1.58-4.76,3.86-9.55,7.69-14.43,11.42-6.15,4.7-10.35,4.65-15.74-.58q-12.09-11.71-23.78-23.81c-5.93-6.18-6-9.81-.77-16.67,3.7-4.89,7.32-9.87,11.32-14.51,2.42-2.8,3-5.21,1.12-8.5a84.74,84.74,0,0,1-8-19.32c-1.15-4.08-3.72-5.63-7.85-6-6.52-.53-13-1.62-19.51-2.44-5.75-.73-8.85-4.28-9-9.76-.28-12.48-.25-25,0-37.45.09-5.95,3.65-9.24,9.51-10,6.71-.86,13.41-1.82,20.14-2.47,3.39-.33,5.48-1.73,6.42-5a93.27,93.27,0,0,1,7.88-18.69c2-3.79,1.82-7-1.11-10.43-4.39-5.14-8.38-10.63-12.47-16-3.33-4.41-2.91-8.7.91-12.56q13.17-13.32,26.48-26.51A10.51,10.51,0,0,1,1855.4,918.88Zm162.82,123.45A75.58,75.58,0,0,0,1942.53,967c-41,.08-75.26,34.34-75.33,75.32a75.44,75.44,0,0,0,75.92,75.7C1985.05,1117.94,2018.27,1084.46,2018.22,1042.33Z"/></g><text class="cls-3" transform="translate(65.95 1063.89)">Redcycle</text></svg>